#!OML:ASF F:\VICON\USERDATA\INSTALL\rory3\rory3.ASF
:FULLY-SPECIFIED
:DEGREES


392
root 0.772488 17.6177 44.1266 -0.768293 1.27139 3.49736
lowerback 9.35357 -2.08852 -4.82926
upperback 0.446888 -3.22406 1.37192
thorax -4.43211 -1.48592 4.56424
lowerneck -15.0232 -2.1587 -3.44782
upperneck 20.9214 -2.32566 0.729196
head 9.10121 -1.28811 0.539577
rclavicle 3.38431e-014 3.18055e-015
rhumerus -35.9992 -22.7198 -75.2025
rradius 23.1425
rwrist 7.2227
rhand -17.9975 25.0965
rfingers 7.12502
rthumb 8.27273 -4.72151
lclavicle 3.38431e-014 3.18055e-015
lhumerus -18.9374 -5.63931 79.8619
lradius 33.0824
lwrist 8.76256
lhand -27.975 22.5338
lfingers 7.12502
lthumb -1.36176 52.5092
rfemur -29.7653 8.42587 13.7684
rtibia 16.7948
rfoot -11.5746 -14.4337
rtoes -8.07681
lfemur 14.221 -1.94316 -27.612
ltibia 13.607
lfoot -16.724 -5.65409
ltoes -7.78068
393
root 0.743185 17.5925 44.3041 -0.751944 1.14061 3.47377
lowerback 9.84947 -2.03659 -5.01987
upperback 0.268812 -3.20239 1.394
thorax -4.88824 -1.45098 4.72613
lowerneck -15.8365 -2.29731 -3.48305
upperneck 21.6575 -2.5273 0.914208
head 9.51591 -1.36545 0.573802
rclavicle 2.9271e-014 -1.19271e-014
rhumerus -36.4519 -23.3338 -74.7237
rradius 22.5714
rwrist 7.89281
rhand -18.515 24.6484
rfingers 7.12502
rthumb 7.77324 -5.18875
lclavicle 2.9271e-014 -1.19271e-014
lhumerus -18.9492 -5.67364 79.7151
lradius 33.4871
lwrist 8.7637
lhand -30.0976 21.206
lfingers 7.12502
lthumb -3.41173 51.1584
rfemur -29.8953 7.42221 14.5191
rtibia 17.5813
rfoot -10.7017 -12.855
rtoes -6.91835
lfemur 14.5572 -2.18391 -27.5507
ltibia 14.0955
lfoot -16.884 -5.51929
ltoes -8.22518
394
root 0.722962 17.5746 44.4939 -0.752092 1.17042 3.36198
lowerback 9.37949 -2.08407 -5.03456
upperback 0.681637 -3.23218 1.46202
thorax -4.18301 -1.49888 4.76881
lowerneck -16.2122 -2.64727 -4.36642
upperneck 21.5124 -2.99158 1.85738
head 9.57707 -1.54362 0.983307
rclavicle -4.98453e-014 1.59028e-015
rhumerus -36.0752 -23.6172 -74.7553
rradius 22.4092
rwrist 8.14301
rhand -18.5804 24.0051
rfingers 7.12502
rthumb 7.71016 -5.83435
lclavicle -4.98453e-014 1.59028e-015
lhumerus -17.9993 -5.32622 79.602
lradius 33.6621
lwrist 8.8062
lhand -31.9303 18.8195
lfingers 7.12502
lthumb -5.18141 48.7361
rfemur -30.1971 6.07654 15.4135
rtibia 19.1048
rfoot -9.81626 -11.2496
rtoes -7.13822
lfemur 15.0309 -2.63855 -27.4396
ltibia 14.3492
lfoot -16.5089 -5.9275
ltoes -5.54351
395
root 0.711242 17.5463 44.689 -0.890345 1.28074 3.23569
lowerback 9.26927 -2.12732 -4.82727
upperback 0.824564 -3.26014 1.45988
thorax -3.98 -1.52638 4.64155
lowerneck -15.8769 -2.57803 -4.3261
upperneck 21.1833 -2.9127 1.84234
head 9.39563 -1.50595 0.985094
rclavicle 1.02871e-014 1.19271e-014
rhumerus -36.4155 -24.1741 -74.373
rradius 22.2129
rwrist 8.22784
rhand -18.4094 23.9368
rfingers 7.12502
rthumb 7.87523 -5.89651
lclavicle 1.02871e-014 1.19271e-014
lhumerus -17.7113 -5.34381 79.5612
lradius 33.9499
lwrist 9.06403
lhand -32.4109 17.729
lfingers 7.12502
lthumb -5.64545 47.6338
rfemur -30.434 4.92434 16.1849
rtibia 20.9806
rfoot -9.37586 -10.2126
rtoes -7.57325
lfemur 15.8224 -3.05563 -27.3513
ltibia 14.4972
lfoot -16.1986 -6.1394
ltoes -5.5481
396
root 0.699062 17.5087 44.8802 -0.96223 1.23212 3.35004
lowerback 9.50304 -2.11188 -4.89474
upperback 0.744028 -3.26101 1.41884
thorax -4.19352 -1.51683 4.65246
lowerneck -15.6402 -2.08519 -3.30852
upperneck 21.0191 -2.24074 0.755727
head 9.2452 -1.23253 0.530203
rclavicle -3.27995e-014 -1.19271e-014
rhumerus -36.8206 -25.1749 -73.5785
rradius 21.3645
rwrist 8.96617
rhand -18.487 24.1118
rfingers 7.12502
rthumb 7.80029 -5.72427
lclavicle -3.27995e-014 -1.19271e-014
lhumerus -17.8961 -5.4152 79.578
lradius 34.4256
lwrist 9.29394
lhand -32.3499 17.7291
lfingers 7.12502
lthumb -5.58653 47.6355
rfemur -30.631 4.20695 16.6114
rtibia 22.7577
rfoot -8.61995 -9.61698
rtoes -7.07279
lfemur 16.6762 -3.39624 -27.6007
ltibia 14.5564
lfoot -16.0726 -5.65175
ltoes -11.3879
397
root 0.67423 17.4642 45.0748 -0.910573 1.07208 3.30129
lowerback 9.57676 -2.05244 -4.97201
upperback 0.590843 -3.19467 1.46681
thorax -4.39608 -1.47194 4.74827
lowerneck -15.6432 -2.28382 -3.58098
upperneck 21.1629 -2.49899 0.968846
head 9.30861 -1.35212 0.615623
rclavicle 2.23633e-015 1.59028e-015
rhumerus -37.3854 -25.1989 -73.1979
rradius 21.1498
rwrist 8.85033
rhand -18.488 24.3333
rfingers 7.12502
rthumb 7.79939 -5.50285
lclavicle 2.23633e-015 1.59028e-015
lhumerus -18.1741 -5.4302 79.6491
lradius 34.8763
lwrist 9.51903
lhand -31.8879 18.3665
lfingers 7.12502
lthumb -5.14046 48.2842
rfemur -30.9703 3.96523 17.1032
rtibia 24.4022
rfoot -7.06391 -9.1882
rtoes -6.89365
lfemur 17.4151 -3.48417 -27.5824
ltibia 14.724
lfoot -16.3157 -4.61959
ltoes -19.6683
398
root 0.651554 17.4982 45.2809 -0.961005 1.02581 2.8921
lowerback 9.43297 -2.05343 -4.64904
upperback 0.556381 -3.14928 1.59837
thorax -4.36672 -1.45513 4.69221
lowerneck -15.3459 -2.27418 -3.54335
upperneck 21.259 -2.48577 0.872061
head 9.28493 -1.3557 0.580445
rclavicle 2.26118e-014 -1.11319e-014
rhumerus -37.8868 -26.1346 -72.3432
rradius 20.5209
rwrist 9.9767
rhand -18.5088 24.8377
rfingers 7.12502
rthumb 7.77929 -4.99916
lclavicle 2.26118e-014 -1.11319e-014
lhumerus -18.4591 -5.16788 79.794
lradius 35.2394
lwrist 9.438
lhand -31.2854 19.1636
lfingers 7.12502
lthumb -4.55876 49.0945
rfemur -31.3095 4.34163 17.5658
rtibia 25.8962
rfoot -5.32305 -9.05614
rtoes -6.3304
lfemur 17.7471 -4.30162 -27.3087
ltibia 15.1167
lfoot -14.9141 -5.84338
ltoes -13.8676
399
root 0.63434 17.5187 45.4936 -1.04988 1.0228 2.34377
lowerback 9.30054 -2.08075 -4.06421
upperback 0.763907 -3.10799 1.77038
thorax -4.10105 -1.45682 4.52321
lowerneck -16.2564 -2.42225 -3.66084
upperneck 21.619 -2.65395 0.987737
head 9.5879 -1.42819 0.60814
rclavicle 2.5345e-015 -1.74931e-014
rhumerus -37.9428 -26.995 -71.81
rradius 20.2566
rwrist 10.9334
rhand -18.1676 24.3733
rfingers 7.12502
rthumb 8.10862 -5.45109
lclavicle 2.5345e-015 -1.74931e-014
lhumerus -18.2316 -4.93627 79.9396
lradius 35.4198
lwrist 9.49486
lhand -31.5924 18.313
lfingers 7.12502
lthumb -4.85521 48.2374
rfemur -31.38 4.76453 18.0855
rtibia 27.0653
rfoot -4.18248 -9.04482
rtoes -4.02991
lfemur 17.9887 -4.88086 -26.9097
ltibia 15.9861
lfoot -13.9956 -6.1433
ltoes -14.1772
400
root 0.612885 17.5161 45.7016 -1.05264 0.917637 2.25817
lowerback 9.28728 -2.05507 -4.06141
upperback 0.689647 -3.07089 1.84033
thorax -4.17156 -1.43449 4.5927
lowerneck -15.9559 -2.25498 -3.41765
upperneck 21.5596 -2.39352 0.560493
head 9.49567 -1.33678 0.456916
rclavicle 2.36554e-014 -1.11319e-014
rhumerus -38.4064 -27.6439 -71.0481
rradius 19.7541
rwrist 11.8956
rhand -18.2167 24.2769
rfingers 7.12502
rthumb 8.0612 -5.54939
lclavicle 2.36554e-014 -1.11319e-014
lhumerus -18.3721 -4.73162 80.0671
lradius 35.4295
lwrist 9.54475
lhand -32.5835 16.7316
lfingers 7.12502
lthumb -5.81211 46.6318
rfemur -31.3702 5.2508 18.0988
rtibia 27.7743
rfoot -3.58148 -8.78954
rtoes -1.45478
lfemur 17.8908 -5.05521 -26.9094
ltibia 17.5434
lfoot -13.4979 -5.9822
ltoes -18.0394
401
root 0.59274 17.5169 45.9013 -1.11252 0.676126 1.98812
lowerback 9.49555 -1.99322 -3.79566
upperback 0.554166 -2.96603 1.9027
thorax -4.45116 -1.37595 4.51143
lowerneck -15.5728 -2.1267 -3.19347
upperneck 21.5217 -2.20835 0.227295
head 9.4003 -1.27094 0.332309
rclavicle -4.80065e-014 -4.77083e-015
rhumerus -38.902 -29.0044 -69.8544
rradius 18.7184
rwrist 13.4994
rhand -18.3326 24.7143
rfingers 7.12502
rthumb 7.94938 -5.11624
lclavicle -4.80065e-014 -4.77083e-015
lhumerus -18.6685 -4.4661 80.1633
lradius 35.5181
lwrist 9.45209
lhand -32.5573 17.3014
lfingers 7.12502
lthumb -5.78682 47.2024
rfemur -31.3135 5.51433 18.4766
rtibia 28.4251
rfoot -3.08993 -7.4426
rtoes -0.475793
lfemur 17.6791 -5.35479 -26.7558
ltibia 19.5567
lfoot -12.7053 -6.08708
ltoes -17.2417
402
root 0.57101 17.5295 46.0992 -1.26621 0.283711 0.963567
lowerback 9.74513 -1.90736 -2.76931
upperback 0.621312 -2.73301 2.1773
thorax -4.57859 -1.27618 4.20121
lowerneck -15.9075 -2.12929 -3.28317
upperneck 21.7604 -2.17006 0.205497
head 9.54687 -1.26378 0.340318
rclavicle 5.29761e-014 -1.03368e-014
rhumerus -39.0785 -30.2866 -68.9151
rradius 17.9451
rwrist 14.713
rhand -18.5627 24.6739
rfingers 7.12502
rthumb 7.72721 -5.16493
lclavicle 5.29761e-014 -1.03368e-014
lhumerus -18.7371 -4.02967 80.2791
lradius 35.6503
lwrist 9.21161
lhand -32.0029 19.1245
lfingers 7.12502
lthumb -5.2515 49.0394
rfemur -31.2286 5.84513 19.7591
rtibia 29.2768
rfoot -2.6468 -5.78225
rtoes 1.89075
lfemur 17.4536 -5.58421 -25.7532
ltibia 21.5345
lfoot -11.6108 -6.82445
ltoes -15.1224
403
root 0.544798 17.5354 46.3129 -1.3855 -0.0161569 0.318392
lowerback 9.59344 -1.86726 -2.28369
upperback 0.753192 -2.61367 2.41658
thorax -4.37705 -1.23145 4.15098
lowerneck -15.923 -2.13846 -3.42763
upperneck 21.6412 -2.15634 0.257841
head 9.5104 -1.26247 0.384512
rclavicle 7.25564e-015 1.35174e-014
rhumerus -39.2581 -30.5795 -68.5315
rradius 17.7644
rwrist 15.1205
rhand -18.6022 24.2831
rfingers 7.12502
rthumb 7.68907 -5.55707
lclavicle 7.25564e-015 1.35174e-014
lhumerus -18.9119 -3.39249 80.3868
lradius 35.6797
lwrist 8.80272
lhand -32.008 18.9422
lfingers 7.12502
lthumb -5.25642 48.857
rfemur -31.0544 5.82967 20.7489
rtibia 30.3085
rfoot -2.27852 -4.69185
rtoes 5.61704
lfemur 17.1531 -5.63328 -25.0736
ltibia 23.4636
lfoot -10.4511 -7.57729
ltoes -17.5894
404
root 0.535345 17.5244 46.5336 -1.5602 -0.100941 0.416632
lowerback 9.56723 -1.9332 -2.39175
upperback 0.46687 -2.70963 2.46151
thorax -4.64663 -1.26622 4.27985
lowerneck -15.0064 -2.19733 -3.86379
upperneck 21.6037 -2.24202 0.564834
head 9.33828 -1.30676 0.560925
rclavicle 3.46879e-014 -3.18055e-015
rhumerus -40.3605 -30.8554 -67.3308
rradius 17.3901
rwrist 16.2803
rhand -18.4866 24.2751
rfingers 7.12502
rthumb 7.80068 -5.56095
lclavicle 3.46879e-014 -3.18055e-015
lhumerus -19.9905 -2.64958 80.5929
lradius 35.618
lwrist 8.68045
lhand -32.3491 16.7809
lfingers 7.12502
lthumb -5.58582 46.6873
rfemur -30.7173 5.07989 21.0305
rtibia 31.3702
rfoot -2.10753 -4.04604
rtoes 6.92938
lfemur 16.8431 -5.59267 -25.2102
ltibia 25.5898
lfoot -9.54697 -8.1676
ltoes -24.6463
